<svg width="23" height="16" viewBox="0 0 23 16" fill="none" xmlns="http://www.w3.org/2000/svg">
<path d="M1.00024 7C0.447959 7 0.000244044 7.44772 0.000244141 8C0.000244237 8.55228 0.44796 9 1.00024 9L1.00024 7ZM21.8364 8.7071C22.2269 8.31658 22.2269 7.68341 21.8364 7.29289L15.4724 0.92893C15.0819 0.538405 14.4487 0.538406 14.0582 0.92893C13.6677 1.31945 13.6677 1.95262 14.0582 2.34314L19.7151 8L14.0582 13.6569C13.6677 14.0474 13.6677 14.6805 14.0582 15.0711C14.4487 15.4616 15.0819 15.4616 15.4724 15.0711L21.8364 8.7071ZM1.00024 9L21.1293 9L21.1293 7L1.00024 7L1.00024 9Z" fill="#1E1B1B"/>
</svg>
